<svg id="visual" viewBox="0 0 900 600" width="900" height="600" xmlns="http://www.w3.org/2000/svg" xmlns:xlink="http://www.w3.org/1999/xlink" version="1.1"><path d="M0 438L21.5 434C43 430 86 422 128.8 411.3C171.7 400.7 214.3 387.3 257.2 391C300 394.7 343 415.3 385.8 426.8C428.7 438.3 471.3 440.7 514.2 435C557 429.3 600 415.7 642.8 410C685.7 404.3 728.3 406.7 771.2 409.7C814 412.7 857 416.3 878.5 418.2L900 420L900 601L878.5 601C857 601 814 601 771.2 601C728.3 601 685.7 601 642.8 601C600 601 557 601 514.2 601C471.3 601 428.7 601 385.8 601C343 601 300 601 257.2 601C214.3 601 171.7 601 128.8 601C86 601 43 601 21.5 601L0 601Z" fill="#c292fd"></path><path d="M0 395L21.5 405.3C43 415.7 86 436.3 128.8 436.7C171.7 437 214.3 417 257.2 419.3C300 421.7 343 446.3 385.8 453.5C428.7 460.7 471.3 450.3 514.2 445.2C557 440 600 440 642.8 441.7C685.7 443.3 728.3 446.7 771.2 444.3C814 442 857 434 878.5 430L900 426L900 601L878.5 601C857 601 814 601 771.2 601C728.3 601 685.7 601 642.8 601C600 601 557 601 514.2 601C471.3 601 428.7 601 385.8 601C343 601 300 601 257.2 601C214.3 601 171.7 601 128.8 601C86 601 43 601 21.5 601L0 601Z" fill="#b981fe"></path><path d="M0 473L21.5 473.3C43 473.7 86 474.3 128.8 475.2C171.7 476 214.3 477 257.2 473.7C300 470.3 343 462.7 385.8 462.2C428.7 461.7 471.3 468.3 514.2 473C557 477.7 600 480.3 642.8 479.7C685.7 479 728.3 475 771.2 474.3C814 473.7 857 476.3 878.5 477.7L900 479L900 601L878.5 601C857 601 814 601 771.2 601C728.3 601 685.7 601 642.8 601C600 601 557 601 514.2 601C471.3 601 428.7 601 385.8 601C343 601 300 601 257.2 601C214.3 601 171.7 601 128.8 601C86 601 43 601 21.5 601L0 601Z" fill="#af6fff"></path><path d="M0 525L21.5 522.2C43 519.3 86 513.7 128.8 510.3C171.7 507 214.3 506 257.2 508.2C300 510.3 343 515.7 385.8 511.8C428.7 508 471.3 495 514.2 492.5C557 490 600 498 642.8 500.2C685.7 502.3 728.3 498.7 771.2 504.7C814 510.7 857 526.3 878.5 534.2L900 542L900 601L878.5 601C857 601 814 601 771.2 601C728.3 601 685.7 601 642.8 601C600 601 557 601 514.2 601C471.3 601 428.7 601 385.8 601C343 601 300 601 257.2 601C214.3 601 171.7 601 128.8 601C86 601 43 601 21.5 601L0 601Z" fill="#a55cff"></path><path d="M0 571L21.5 569.7C43 568.3 86 565.7 128.8 558.2C171.7 550.7 214.3 538.3 257.2 534.8C300 531.3 343 536.7 385.8 539.8C428.7 543 471.3 544 514.2 548.8C557 553.7 600 562.3 642.8 560.5C685.7 558.7 728.3 546.3 771.2 543.8C814 541.3 857 548.7 878.5 552.3L900 556L900 601L878.5 601C857 601 814 601 771.2 601C728.3 601 685.7 601 642.8 601C600 601 557 601 514.2 601C471.3 601 428.7 601 385.8 601C343 601 300 601 257.2 601C214.3 601 171.7 601 128.8 601C86 601 43 601 21.5 601L0 601Z" fill="#9a48ff"></path></svg>